<svg width="468" height="373" viewBox="0 0 468 373" fill="none" xmlns="http://www.w3.org/2000/svg">
<g clip-path="url(#clip0_1_2)">
<path d="M68.89 334.57C160.11 385 308 385 399.21 334.57C490.42 284.14 490.43 202.44 399.21 152.03C307.99 101.62 160.1 101.63 68.89 152.03C-22.32 202.43 -22.33 284.17 68.89 334.57Z" fill="#F5F5F5" fill-opacity="0.4"/>
<path d="M229.25 224.61L322.15 278.24C323.492 278.921 324.975 279.276 326.48 279.276C327.985 279.276 329.468 278.921 330.81 278.24L431.81 219.92C434.2 218.54 434.2 216.3 431.81 214.92L338.92 161.29C337.578 160.609 336.095 160.254 334.59 160.254C333.085 160.254 331.602 160.609 330.26 161.29L229.26 219.61C226.86 221 226.86 223.23 229.25 224.61Z" fill="#E0E0E0" fill-opacity="0.6"/>
<path d="M179.21 188.85C200.81 188.85 218.32 179.654 218.32 168.31C218.32 156.966 200.81 147.77 179.21 147.77C157.61 147.77 140.1 156.966 140.1 168.31C140.1 179.654 157.61 188.85 179.21 188.85Z" fill="#E0E0E0" fill-opacity="0.6"/>
<path d="M245.33 156.95C266.93 156.95 284.44 147.754 284.44 136.41C284.44 125.066 266.93 115.87 245.33 115.87C223.73 115.87 206.22 125.066 206.22 136.41C206.22 147.754 223.73 156.95 245.33 156.95Z" fill="#E0E0E0" fill-opacity="0.6"/>
<path d="M22.09 283.24L110.92 334.52C112.262 335.201 113.745 335.556 115.25 335.556C116.755 335.556 118.238 335.201 119.58 334.52L216.58 278.52C218.98 277.14 218.98 274.9 216.58 273.52L127.73 222.22C126.388 221.539 124.905 221.184 123.4 221.184C121.895 221.184 120.412 221.539 119.07 222.22L22.12 278.22C19.7 279.62 19.7 281.86 22.09 283.24Z" fill="#E0E0E0" fill-opacity="0.6"/>
<path d="M185.17 93.76V167.13C185.119 167.654 184.932 168.155 184.627 168.583C184.321 169.011 183.908 169.352 183.43 169.57C182.123 170.231 180.679 170.575 179.215 170.575C177.751 170.575 176.307 170.231 175 169.57C174.52 169.353 174.105 169.013 173.798 168.585C173.491 168.156 173.302 167.655 173.25 167.13V93.76H185.17Z" fill="#9A4A4D"/>
<path d="M139.72 131.73L176.64 42.59H181.78L218.7 131.74C218.968 132.384 219.089 133.08 219.055 133.777C219.022 134.474 218.833 135.155 218.504 135.77C218.175 136.386 217.713 136.92 217.152 137.335C216.591 137.75 215.945 138.035 215.26 138.17L214.66 138.29C213.489 138.523 212.449 139.191 211.75 140.159C211.05 141.128 210.743 142.325 210.89 143.51C210.989 144.292 210.89 145.087 210.603 145.821C210.315 146.555 209.848 147.205 209.244 147.711C208.64 148.218 207.918 148.564 207.145 148.72C206.372 148.875 205.573 148.834 204.82 148.6L203 148C201.904 147.662 200.722 147.735 199.676 148.207C198.63 148.678 197.793 149.515 197.32 150.56L195.48 154.61C195.206 155.213 194.808 155.752 194.312 156.191C193.815 156.631 193.232 156.96 192.6 157.158C191.967 157.356 191.3 157.419 190.642 157.342C189.984 157.264 189.349 157.049 188.78 156.71L181.62 152.47C180.892 152.038 180.061 151.81 179.215 151.81C178.369 151.81 177.538 152.038 176.81 152.47L169.64 156.71C169.071 157.049 168.436 157.264 167.778 157.342C167.12 157.419 166.453 157.356 165.82 157.158C165.188 156.96 164.605 156.631 164.108 156.191C163.612 155.752 163.214 155.213 162.94 154.61L161.1 150.56C160.627 149.515 159.79 148.678 158.744 148.207C157.698 147.735 156.516 147.662 155.42 148L153.6 148.56C152.846 148.792 152.047 148.831 151.274 148.674C150.502 148.517 149.781 148.169 149.177 147.662C148.573 147.155 148.106 146.505 147.819 145.771C147.531 145.037 147.432 144.242 147.53 143.46C147.682 142.277 147.378 141.08 146.679 140.112C145.981 139.145 144.941 138.479 143.77 138.25L143.16 138.13C142.481 137.991 141.841 137.705 141.284 137.291C140.728 136.877 140.27 136.346 139.942 135.735C139.613 135.125 139.423 134.449 139.385 133.757C139.347 133.065 139.461 132.373 139.72 131.73Z" fill="#338866"/>
<path opacity="0.1" d="M139.72 131.73L176.64 42.59H181.78L218.7 131.74C218.968 132.384 219.089 133.08 219.055 133.777C219.022 134.474 218.833 135.155 218.504 135.77C218.175 136.386 217.713 136.92 217.152 137.335C216.591 137.75 215.945 138.035 215.26 138.17L214.66 138.29C213.489 138.523 212.449 139.191 211.75 140.159C211.05 141.128 210.743 142.325 210.89 143.51C210.989 144.292 210.89 145.087 210.603 145.821C210.315 146.555 209.848 147.205 209.244 147.711C208.64 148.218 207.918 148.564 207.145 148.72C206.372 148.875 205.573 148.834 204.82 148.6L203 148C201.904 147.662 200.722 147.735 199.676 148.207C198.63 148.678 197.793 149.515 197.32 150.56L195.48 154.61C195.206 155.213 194.808 155.752 194.312 156.191C193.815 156.631 193.232 156.96 192.6 157.158C191.967 157.356 191.3 157.419 190.642 157.342C189.984 157.264 189.349 157.049 188.78 156.71L181.62 152.47C180.892 152.038 180.061 151.81 179.215 151.81C178.369 151.81 177.538 152.038 176.81 152.47L169.64 156.71C169.071 157.049 168.436 157.264 167.778 157.342C167.12 157.419 166.453 157.356 165.82 157.158C165.188 156.96 164.605 156.631 164.108 156.191C163.612 155.752 163.214 155.213 162.94 154.61L161.1 150.56C160.627 149.515 159.79 148.678 158.744 148.207C157.698 147.735 156.516 147.662 155.42 148L153.6 148.56C152.846 148.792 152.047 148.831 151.274 148.674C150.502 148.517 149.781 148.169 149.177 147.662C148.573 147.155 148.106 146.505 147.819 145.771C147.531 145.037 147.432 144.242 147.53 143.46C147.682 142.277 147.378 141.08 146.679 140.112C145.981 139.145 144.941 138.479 143.77 138.25L143.16 138.13C142.481 137.991 141.841 137.705 141.284 137.291C140.728 136.877 140.27 136.346 139.942 135.735C139.613 135.125 139.423 134.449 139.385 133.757C139.347 133.065 139.461 132.373 139.72 131.73Z" fill="black"/>
<path d="M148 105.81L176.64 39H181.78L211.18 105.79C212.24 107.94 211.63 110.5 209.27 110.89C208.358 111.029 207.536 111.516 206.976 112.249C206.417 112.982 206.164 113.904 206.27 114.82L206.35 115.51C206.422 116.12 206.336 116.738 206.099 117.304C205.862 117.871 205.482 118.366 204.997 118.743C204.512 119.119 203.938 119.364 203.33 119.452C202.723 119.541 202.103 119.472 201.53 119.25L199.71 118.56C198.858 118.233 197.913 118.246 197.07 118.595C196.227 118.945 195.55 119.606 195.18 120.44L193 125.54C192.794 126.001 192.494 126.412 192.117 126.748C191.741 127.084 191.298 127.336 190.817 127.489C190.336 127.641 189.828 127.689 189.327 127.631C188.826 127.572 188.343 127.409 187.91 127.15L181 123.07C180.446 122.741 179.814 122.567 179.17 122.567C178.526 122.567 177.894 122.741 177.34 123.07L171.22 127.15C170.788 127.408 170.305 127.572 169.805 127.63C169.305 127.689 168.798 127.64 168.318 127.488C167.838 127.336 167.395 127.084 167.02 126.748C166.644 126.412 166.345 126 166.14 125.54L163.87 120.46C163.502 119.626 162.827 118.966 161.986 118.616C161.144 118.266 160.201 118.253 159.35 118.58L157.52 119.27C156.948 119.489 156.329 119.557 155.723 119.467C155.117 119.377 154.544 119.132 154.06 118.756C153.577 118.38 153.198 117.886 152.962 117.32C152.725 116.755 152.638 116.139 152.71 115.53L152.79 114.84C152.894 113.924 152.64 113.004 152.08 112.272C151.521 111.539 150.701 111.051 149.79 110.91C147.5 110.52 146.9 108 148 105.81Z" fill="#338866"/>
<path d="M155.1 79.54L176.66 34.22L176.83 33.95C177.07 33.5301 177.416 33.1811 177.834 32.9383C178.252 32.6955 178.727 32.5676 179.21 32.5676C179.693 32.5676 180.168 32.6955 180.586 32.9383C181.004 33.1811 181.35 33.5301 181.59 33.95L181.76 34.23L203.32 79.55C203.547 79.9188 203.697 80.3295 203.761 80.7576C203.825 81.1857 203.803 81.6224 203.694 82.0416C203.586 82.4607 203.394 82.8537 203.131 83.1971C202.867 83.5405 202.537 83.8271 202.16 84.04L202 84.13C201.461 84.4303 201.021 84.8797 200.732 85.4244C200.443 85.969 200.317 86.5856 200.37 87.2C200.413 87.711 200.334 88.2249 200.138 88.6987C199.942 89.1726 199.635 89.5926 199.243 89.9235C198.852 90.2545 198.386 90.4868 197.886 90.601C197.387 90.7153 196.867 90.708 196.37 90.58L195.12 90.25C194.421 90.0674 193.682 90.1249 193.02 90.4133C192.358 90.7017 191.812 91.2041 191.47 91.84L189.74 95C189.343 95.7485 188.665 96.3089 187.855 96.5582C187.045 96.8075 186.169 96.7255 185.42 96.33L180.7 93.87C180.238 93.6248 179.723 93.4967 179.2 93.4967C178.677 93.4967 178.162 93.6248 177.7 93.87L173 96.36C172.25 96.7528 171.375 96.8334 170.566 96.5843C169.757 96.3352 169.079 95.7765 168.68 95.03L167 91.84C166.659 91.2029 166.114 90.6993 165.451 90.4108C164.789 90.1222 164.049 90.0656 163.35 90.25L162.1 90.58C161.603 90.708 161.083 90.7153 160.584 90.601C160.084 90.4868 159.618 90.2545 159.227 89.9235C158.835 89.5926 158.528 89.1726 158.332 88.6987C158.136 88.2249 158.057 87.711 158.1 87.2C158.154 86.5855 158.029 85.9684 157.74 85.4235C157.451 84.8786 157.009 84.4293 156.47 84.13L156.31 84.04C155.929 83.8304 155.593 83.5459 155.325 83.2036C155.056 82.8613 154.859 82.4681 154.746 82.0478C154.633 81.6275 154.606 81.1887 154.667 80.7578C154.728 80.3268 154.875 79.9126 155.1 79.54Z" fill="#338866"/>
<path opacity="0.2" d="M155.1 79.54L176.66 34.22L176.83 33.95C177.07 33.5301 177.416 33.1811 177.834 32.9383C178.252 32.6955 178.727 32.5676 179.21 32.5676C179.693 32.5676 180.168 32.6955 180.586 32.9383C181.004 33.1811 181.35 33.5301 181.59 33.95L181.76 34.23L203.32 79.55C203.547 79.9188 203.697 80.3295 203.761 80.7576C203.825 81.1857 203.803 81.6224 203.694 82.0416C203.586 82.4607 203.394 82.8537 203.131 83.1971C202.867 83.5405 202.537 83.8271 202.16 84.04L202 84.13C201.461 84.4303 201.021 84.8797 200.732 85.4244C200.443 85.969 200.317 86.5856 200.37 87.2C200.413 87.711 200.334 88.2249 200.138 88.6987C199.942 89.1726 199.635 89.5926 199.243 89.9235C198.852 90.2545 198.386 90.4868 197.886 90.601C197.387 90.7153 196.867 90.708 196.37 90.58L195.12 90.25C194.421 90.0674 193.682 90.1249 193.02 90.4133C192.358 90.7017 191.812 91.2041 191.47 91.84L189.74 95C189.343 95.7485 188.665 96.3089 187.855 96.5582C187.045 96.8075 186.169 96.7255 185.42 96.33L180.7 93.87C180.238 93.6248 179.723 93.4967 179.2 93.4967C178.677 93.4967 178.162 93.6248 177.7 93.87L173 96.36C172.25 96.7528 171.375 96.8334 170.566 96.5843C169.757 96.3352 169.079 95.7765 168.68 95.03L167 91.84C166.659 91.2029 166.114 90.6993 165.451 90.4108C164.789 90.1222 164.049 90.0656 163.35 90.25L162.1 90.58C161.603 90.708 161.083 90.7153 160.584 90.601C160.084 90.4868 159.618 90.2545 159.227 89.9235C158.835 89.5926 158.528 89.1726 158.332 88.6987C158.136 88.2249 158.057 87.711 158.1 87.2C158.154 86.5855 158.029 85.9684 157.74 85.4235C157.451 84.8786 157.009 84.4293 156.47 84.13L156.31 84.04C155.929 83.8304 155.593 83.5459 155.325 83.2036C155.056 82.8613 154.859 82.4681 154.746 82.0478C154.633 81.6275 154.606 81.1887 154.667 80.7578C154.728 80.3268 154.875 79.9126 155.1 79.54Z" fill="white"/>
<path d="M182.19 170C182.252 168.531 182.879 167.142 183.94 166.125C185.001 165.107 186.415 164.539 187.885 164.539C189.355 164.539 190.769 165.107 191.83 166.125C192.891 167.142 193.518 168.531 193.58 170C193.585 170.053 193.585 170.107 193.58 170.16C193.585 170.213 193.585 170.267 193.58 170.32C193.504 170.791 193.312 171.235 193.023 171.614C192.733 171.992 192.354 172.293 191.92 172.49C190.672 173.126 189.291 173.457 187.89 173.457C186.489 173.457 185.108 173.126 183.86 172.49C183.429 172.287 183.053 171.984 182.763 171.607C182.473 171.229 182.276 170.788 182.19 170.32V170Z" fill="#37474F"/>
<path d="M183.86 172.44C183.429 172.237 183.053 171.934 182.763 171.557C182.473 171.179 182.276 170.738 182.19 170.27V170C182.222 169.002 182.515 168.031 183.042 167.183C183.569 166.335 184.31 165.64 185.19 165.17C185.19 165.17 182.35 168.74 184.43 171.09C185.86 172.72 190.77 173.01 192.93 171.73C192.64 172.036 192.302 172.292 191.93 172.49C190.677 173.12 189.292 173.443 187.889 173.435C186.486 173.426 185.106 173.085 183.86 172.44Z" fill="#263238"/>
<path d="M191.4 172.82C191.4 171.759 191.821 170.742 192.572 169.992C193.322 169.241 194.339 168.82 195.4 168.82C196.461 168.82 197.478 169.241 198.228 169.992C198.979 170.742 199.4 171.759 199.4 172.82V173.05C199.342 173.381 199.204 173.694 198.998 173.96C198.793 174.227 198.526 174.439 198.22 174.58C197.339 175.029 196.364 175.263 195.375 175.263C194.386 175.263 193.411 175.029 192.53 174.58C192.224 174.439 191.957 174.227 191.752 173.96C191.546 173.694 191.408 173.381 191.35 173.05V172.82H191.4Z" fill="#455A64"/>
<path d="M192.58 174.58C192.274 174.439 192.007 174.227 191.802 173.96C191.596 173.694 191.458 173.381 191.4 173.05V172.82C191.416 172.365 191.507 171.915 191.67 171.49C191.58 173.21 192.39 174.26 194.93 174.58C197.47 174.9 199.14 173.83 199.36 173.44C199.138 173.934 198.753 174.336 198.27 174.58C197.389 175.029 196.414 175.263 195.425 175.263C194.436 175.263 193.461 175.029 192.58 174.58Z" fill="#37474F"/>
<path d="M167.64 169.65C167.64 168.582 168.064 167.559 168.819 166.804C169.574 166.049 170.597 165.625 171.665 165.625C172.732 165.625 173.756 166.049 174.511 166.804C175.266 167.559 175.69 168.582 175.69 169.65V169.87C175.633 170.202 175.496 170.515 175.291 170.782C175.085 171.049 174.817 171.261 174.51 171.4C173.629 171.849 172.654 172.083 171.665 172.083C170.676 172.083 169.701 171.849 168.82 171.4C168.513 171.261 168.245 171.049 168.039 170.782C167.834 170.515 167.697 170.202 167.64 169.87V169.65Z" fill="#455A64"/>
<path d="M168.82 171.4C168.513 171.261 168.245 171.049 168.039 170.782C167.834 170.515 167.697 170.202 167.64 169.87V169.65C167.656 169.191 167.75 168.737 167.92 168.31C167.82 170.04 168.63 171.08 171.18 171.41C173.73 171.74 175.38 170.66 175.6 170.26C175.381 170.756 174.995 171.159 174.51 171.4C173.629 171.849 172.654 172.083 171.665 172.083C170.676 172.083 169.701 171.849 168.82 171.4Z" fill="#37474F"/>
<path d="M250.94 61.86V135.24C250.887 135.763 250.697 136.262 250.39 136.689C250.083 137.115 249.669 137.454 249.19 137.67C247.883 138.331 246.439 138.675 244.975 138.675C243.511 138.675 242.067 138.331 240.76 137.67C240.283 137.452 239.871 137.113 239.566 136.687C239.261 136.261 239.072 135.762 239.02 135.24V61.86H250.94Z" fill="#9A4A4D"/>
<path d="M205.49 99.84L242.41 10.69H247.55L284.46 99.84C284.728 100.485 284.849 101.181 284.815 101.879C284.782 102.577 284.593 103.258 284.264 103.874C283.935 104.49 283.473 105.026 282.912 105.442C282.351 105.858 281.705 106.144 281.02 106.28L280.42 106.4C279.249 106.629 278.209 107.295 277.511 108.262C276.813 109.23 276.508 110.427 276.66 111.61C276.756 112.391 276.656 113.185 276.367 113.917C276.079 114.65 275.612 115.299 275.008 115.805C274.405 116.311 273.685 116.658 272.913 116.814C272.141 116.97 271.343 116.931 270.59 116.7L268.77 116.14C267.672 115.801 266.489 115.874 265.442 116.346C264.394 116.817 263.555 117.654 263.08 118.7L261.25 122.75C260.976 123.353 260.578 123.892 260.082 124.331C259.586 124.771 259.003 125.1 258.371 125.299C257.739 125.498 257.072 125.562 256.414 125.486C255.755 125.411 255.12 125.197 254.55 124.86L247.38 120.61C246.652 120.178 245.821 119.95 244.975 119.95C244.129 119.95 243.298 120.178 242.57 120.61L235.41 124.86C234.84 125.197 234.205 125.411 233.546 125.486C232.888 125.562 232.221 125.498 231.589 125.299C230.957 125.1 230.374 124.771 229.878 124.331C229.382 123.892 228.984 123.353 228.71 122.75L226.87 118.7C226.397 117.655 225.56 116.818 224.514 116.347C223.468 115.875 222.286 115.802 221.19 116.14L219.36 116.7C218.607 116.932 217.807 116.972 217.035 116.815C216.263 116.658 215.542 116.31 214.939 115.803C214.336 115.295 213.87 114.645 213.584 113.91C213.297 113.176 213.2 112.382 213.3 111.6C213.444 110.416 213.136 109.222 212.437 108.256C211.738 107.29 210.699 106.623 209.53 106.39L208.93 106.27C208.245 106.135 207.599 105.85 207.038 105.435C206.477 105.02 206.015 104.486 205.686 103.87C205.357 103.255 205.168 102.574 205.134 101.877C205.101 101.18 205.222 100.484 205.49 99.84Z" fill="#338866"/>
<path opacity="0.1" d="M205.49 99.84L242.41 10.69H247.55L284.46 99.84C284.728 100.485 284.849 101.181 284.815 101.879C284.782 102.577 284.593 103.258 284.264 103.874C283.935 104.49 283.473 105.026 282.912 105.442C282.351 105.858 281.705 106.144 281.02 106.28L280.42 106.4C279.249 106.629 278.209 107.295 277.511 108.262C276.813 109.23 276.508 110.427 276.66 111.61C276.756 112.391 276.656 113.185 276.367 113.917C276.079 114.65 275.612 115.299 275.008 115.805C274.405 116.311 273.685 116.658 272.913 116.814C272.141 116.97 271.343 116.931 270.59 116.7L268.77 116.14C267.672 115.801 266.489 115.874 265.442 116.346C264.394 116.817 263.555 117.654 263.08 118.7L261.25 122.75C260.976 123.353 260.578 123.892 260.082 124.331C259.586 124.771 259.003 125.1 258.371 125.299C257.739 125.498 257.072 125.562 256.414 125.486C255.755 125.411 255.12 125.197 254.55 124.86L247.38 120.61C246.652 120.178 245.821 119.95 244.975 119.95C244.129 119.95 243.298 120.178 242.57 120.61L235.41 124.86C234.84 125.197 234.205 125.411 233.546 125.486C232.888 125.562 232.221 125.498 231.589 125.299C230.957 125.1 230.374 124.771 229.878 124.331C229.382 123.892 228.984 123.353 228.71 122.75L226.87 118.7C226.397 117.655 225.56 116.818 224.514 116.347C223.468 115.875 222.286 115.802 221.19 116.14L219.36 116.7C218.607 116.932 217.807 116.972 217.035 116.815C216.263 116.658 215.542 116.31 214.939 115.803C214.336 115.295 213.87 114.645 213.584 113.91C213.297 113.176 213.2 112.382 213.3 111.6C213.444 110.416 213.136 109.222 212.437 108.256C211.738 107.29 210.699 106.623 209.53 106.39L208.93 106.27C208.245 106.135 207.599 105.85 207.038 105.435C206.477 105.02 206.015 104.486 205.686 103.87C205.357 103.255 205.168 102.574 205.134 101.877C205.101 101.18 205.222 100.484 205.49 99.84Z" fill="black"/>
<path d="M213.72 73.92L242.41 7.12H247.55L276.95 73.92C278 76.06 277.4 78.63 275.04 79.01C274.127 79.1513 273.305 79.6406 272.746 80.3753C272.186 81.1099 271.933 82.0328 272.04 82.95L272.12 83.63C272.192 84.2385 272.105 84.8552 271.868 85.4204C271.632 85.9856 271.253 86.4802 270.77 86.8563C270.286 87.2324 269.713 87.4773 269.107 87.5673C268.501 87.6573 267.882 87.5893 267.31 87.37L265.48 86.68C264.629 86.3559 263.686 86.3701 262.846 86.7198C262.005 87.0695 261.33 87.728 260.96 88.56L258.69 93.64C258.487 94.1014 258.188 94.5142 257.812 94.8509C257.437 95.1876 256.994 95.4406 256.514 95.5929C256.033 95.7452 255.526 95.7934 255.025 95.7343C254.524 95.6752 254.042 95.5101 253.61 95.25L246.78 91.18C246.228 90.8465 245.595 90.6703 244.95 90.6703C244.305 90.6703 243.672 90.8465 243.12 91.18L237 95.25C236.567 95.5102 236.084 95.6754 235.583 95.7346C235.081 95.7938 234.573 95.7456 234.092 95.5934C233.61 95.4411 233.167 95.1882 232.791 94.8514C232.415 94.5146 232.114 94.1017 231.91 93.64L229.65 88.56C229.278 87.7273 228.601 87.0685 227.759 86.7189C226.917 86.3693 225.972 86.3554 225.12 86.68L223.3 87.37C222.727 87.5916 222.107 87.6613 221.5 87.5724C220.892 87.4835 220.318 87.239 219.833 86.8625C219.348 86.4861 218.968 85.9907 218.731 85.4242C218.494 84.8578 218.408 84.2397 218.48 83.63L218.56 82.94C218.666 82.0239 218.413 81.1023 217.854 80.3693C217.294 79.6362 216.472 79.1489 215.56 79.01C213.27 78.62 212.66 76.06 213.72 73.92Z" fill="#338866"/>
<path d="M220.87 47.65L242.43 2.32L242.6 2.05C242.84 1.63013 243.186 1.28109 243.604 1.03831C244.022 0.795527 244.497 0.667648 244.98 0.667648C245.463 0.667648 245.938 0.795527 246.356 1.03831C246.774 1.28109 247.12 1.63013 247.36 2.05L247.53 2.33L269.09 47.65C269.318 48.019 269.468 48.4304 269.533 48.8592C269.597 49.288 269.574 49.7254 269.464 50.145C269.355 50.5646 269.162 50.9577 268.896 51.3006C268.631 51.6435 268.299 51.929 267.92 52.14L267.77 52.23C267.232 52.5317 266.792 52.9812 266.501 53.5252C266.211 54.0692 266.082 54.6851 266.13 55.3C266.173 55.811 266.094 56.3249 265.898 56.7987C265.702 57.2726 265.395 57.6926 265.003 58.0235C264.612 58.3545 264.146 58.5868 263.646 58.701C263.147 58.8153 262.627 58.808 262.13 58.68L260.89 58.36C260.191 58.1738 259.45 58.2295 258.788 58.5182C258.125 58.807 257.579 59.3116 257.24 59.95L255.53 63.14C255.129 63.8846 254.451 64.4415 253.643 64.6904C252.834 64.9393 251.96 64.8601 251.21 64.47L246.47 62C246.008 61.7548 245.493 61.6267 244.97 61.6267C244.447 61.6267 243.932 61.7548 243.47 62L238.75 64.47C238 64.8601 237.126 64.9393 236.317 64.6904C235.509 64.4415 234.831 63.8846 234.43 63.14L232.74 60C232.399 59.3629 231.854 58.8593 231.191 58.5708C230.529 58.2822 229.789 58.2256 229.09 58.41L227.84 58.73C227.343 58.858 226.823 58.8653 226.324 58.7511C225.824 58.6368 225.358 58.4045 224.967 58.0735C224.575 57.7426 224.268 57.3226 224.072 56.8487C223.876 56.3749 223.797 55.861 223.84 55.35C223.893 54.7356 223.767 54.119 223.478 53.5744C223.189 53.0298 222.749 52.5803 222.21 52.28L222.05 52.19C221.663 51.9802 221.324 51.6932 221.053 51.3467C220.782 51.0003 220.585 50.6019 220.474 50.1762C220.364 49.7505 220.342 49.3066 220.41 48.872C220.478 48.4374 220.634 48.0215 220.87 47.65Z" fill="#338866"/>
<path opacity="0.2" d="M220.87 47.65L242.43 2.32L242.6 2.05C242.84 1.63013 243.186 1.28109 243.604 1.03831C244.022 0.795527 244.497 0.667648 244.98 0.667648C245.463 0.667648 245.938 0.795527 246.356 1.03831C246.774 1.28109 247.12 1.63013 247.36 2.05L247.53 2.33L269.09 47.65C269.318 48.019 269.468 48.4304 269.533 48.8592C269.597 49.288 269.574 49.7254 269.464 50.145C269.355 50.5646 269.162 50.9577 268.896 51.3006C268.631 51.6435 268.299 51.929 267.92 52.14L267.77 52.23C267.232 52.5317 266.792 52.9812 266.501 53.5252C266.211 54.0692 266.082 54.6851 266.13 55.3C266.173 55.811 266.094 56.3249 265.898 56.7987C265.702 57.2726 265.395 57.6926 265.003 58.0235C264.612 58.3545 264.146 58.5868 263.646 58.701C263.147 58.8153 262.627 58.808 262.13 58.68L260.89 58.36C260.191 58.1738 259.45 58.2295 258.788 58.5182C258.125 58.807 257.579 59.3116 257.24 59.95L255.53 63.14C255.129 63.8846 254.451 64.4415 253.643 64.6904C252.834 64.9393 251.96 64.8601 251.21 64.47L246.47 62C246.008 61.7548 245.493 61.6267 244.97 61.6267C244.447 61.6267 243.932 61.7548 243.47 62L238.75 64.47C238 64.8601 237.126 64.9393 236.317 64.6904C235.509 64.4415 234.831 63.8846 234.43 63.14L232.74 60C232.399 59.3629 231.854 58.8593 231.191 58.5708C230.529 58.2822 229.789 58.2256 229.09 58.41L227.84 58.73C227.343 58.858 226.823 58.8653 226.324 58.7511C225.824 58.6368 225.358 58.4045 224.967 58.0735C224.575 57.7426 224.268 57.3226 224.072 56.8487C223.876 56.3749 223.797 55.861 223.84 55.35C223.893 54.7356 223.767 54.119 223.478 53.5744C223.189 53.0298 222.749 52.5803 222.21 52.28L222.05 52.19C221.663 51.9802 221.324 51.6932 221.053 51.3467C220.782 51.0003 220.585 50.6019 220.474 50.1762C220.364 49.7505 220.342 49.3066 220.41 48.872C220.478 48.4374 220.634 48.0215 220.87 47.65Z" fill="white"/>
<path d="M248 138.06C248.062 136.591 248.688 135.202 249.75 134.185C250.811 133.167 252.225 132.599 253.695 132.599C255.165 132.599 256.579 133.167 257.64 134.185C258.702 135.202 259.328 136.591 259.39 138.06V138.38C259.309 138.848 259.115 139.288 258.826 139.665C258.537 140.041 258.161 140.341 257.73 140.54C256.482 141.176 255.101 141.507 253.7 141.507C252.299 141.507 250.918 141.176 249.67 140.54C249.235 140.345 248.855 140.046 248.564 139.67C248.272 139.293 248.079 138.85 248 138.38C247.995 138.327 247.995 138.273 248 138.22C247.995 138.167 247.995 138.113 248 138.06Z" fill="#37474F"/>
<path d="M249.63 140.54C249.195 140.345 248.815 140.046 248.524 139.67C248.232 139.293 248.039 138.85 247.96 138.38C247.955 138.327 247.955 138.273 247.96 138.22C247.955 138.167 247.955 138.113 247.96 138.06C247.99 137.061 248.283 136.087 248.81 135.237C249.336 134.387 250.078 133.691 250.96 133.22C250.96 133.27 248.13 136.8 250.2 139.15C251.63 140.77 256.55 141.07 258.71 139.78C258.418 140.083 258.08 140.339 257.71 140.54C256.459 141.179 255.075 141.512 253.67 141.512C252.265 141.512 250.881 141.179 249.63 140.54Z" fill="#263238"/>
<path d="M257.17 140.92C257.17 139.859 257.591 138.842 258.342 138.092C259.092 137.341 260.109 136.92 261.17 136.92C262.231 136.92 263.248 137.341 263.998 138.092C264.749 138.842 265.17 139.859 265.17 140.92C265.175 140.96 265.175 141 265.17 141.04C265.175 141.076 265.175 141.113 265.17 141.15C265.12 141.483 264.986 141.798 264.781 142.065C264.577 142.333 264.308 142.544 264 142.68C263.119 143.129 262.144 143.363 261.155 143.363C260.166 143.363 259.191 143.129 258.31 142.68C258.003 142.541 257.735 142.329 257.529 142.062C257.324 141.795 257.187 141.482 257.13 141.15V140.92H257.17Z" fill="#455A64"/>
<path d="M258.35 142.68C258.043 142.541 257.775 142.329 257.569 142.062C257.364 141.795 257.227 141.482 257.17 141.15V140.92C257.182 140.464 257.274 140.014 257.44 139.59C257.34 141.31 258.16 142.36 260.7 142.68C263.24 143 264.9 141.93 265.12 141.54C264.902 142.033 264.521 142.436 264.04 142.68C263.159 143.129 262.184 143.363 261.195 143.363C260.206 143.363 259.231 143.129 258.35 142.68Z" fill="#37474F"/>
<path d="M233.41 137.75C233.41 136.689 233.831 135.672 234.582 134.922C235.332 134.171 236.349 133.75 237.41 133.75C238.471 133.75 239.488 134.171 240.238 134.922C240.989 135.672 241.41 136.689 241.41 137.75C241.415 137.786 241.415 137.824 241.41 137.86C241.415 137.9 241.415 137.94 241.41 137.98C241.354 138.311 241.219 138.624 241.015 138.89C240.811 139.157 240.545 139.37 240.24 139.51C239.357 139.954 238.383 140.185 237.395 140.185C236.407 140.185 235.433 139.954 234.55 139.51C234.245 139.368 233.979 139.155 233.774 138.889C233.568 138.623 233.43 138.311 233.37 137.98V137.75H233.41Z" fill="#455A64"/>
<path d="M234.59 139.51C234.285 139.368 234.019 139.155 233.814 138.889C233.608 138.623 233.47 138.311 233.41 137.98V137.75C233.422 137.291 233.514 136.838 233.68 136.41C233.58 138.14 234.4 139.19 236.94 139.51C239.48 139.83 241.14 138.76 241.36 138.37C241.137 138.859 240.757 139.261 240.28 139.51C239.397 139.954 238.423 140.185 237.435 140.185C236.447 140.185 235.473 139.954 234.59 139.51Z" fill="#37474F"/>
<path d="M228.29 206.66V192.59H216.8V206.66C216.846 207.166 217.026 207.65 217.322 208.063C217.617 208.476 218.017 208.803 218.48 209.01C219.74 209.648 221.133 209.98 222.545 209.98C223.957 209.98 225.35 209.648 226.61 209.01C227.073 208.803 227.473 208.476 227.769 208.063C228.064 207.65 228.244 207.166 228.29 206.66Z" fill="#37474F"/>
<path d="M218.48 190.25C219.74 189.612 221.133 189.28 222.545 189.28C223.957 189.28 225.35 189.612 226.61 190.25C228.85 191.54 228.85 193.64 226.61 194.94C225.35 195.578 223.957 195.91 222.545 195.91C221.133 195.91 219.74 195.578 218.48 194.94C216.24 193.64 216.24 191.54 218.48 190.25Z" fill="#455A64"/>
<path d="M228.29 196.35V198.51C228.236 198.971 228.062 199.41 227.785 199.782C227.507 200.154 227.137 200.447 226.71 200.63C225.418 201.281 223.992 201.62 222.545 201.62C221.098 201.62 219.672 201.281 218.38 200.63C217.955 200.445 217.585 200.152 217.308 199.78C217.031 199.408 216.856 198.97 216.8 198.51V196.36C216.498 196.635 216.254 196.968 216.082 197.339C215.91 197.71 215.815 198.112 215.8 198.52C215.844 199.161 216.06 199.779 216.426 200.307C216.792 200.835 217.295 201.254 217.88 201.52C219.325 202.256 220.923 202.639 222.545 202.639C224.167 202.639 225.765 202.256 227.21 201.52C227.795 201.253 228.296 200.834 228.662 200.306C229.029 199.778 229.245 199.161 229.29 198.52C229.281 198.109 229.187 197.704 229.015 197.331C228.843 196.958 228.596 196.624 228.29 196.35Z" fill="#F0F0F0"/>
<path d="M242.54 209.32C242.452 209.321 242.365 209.296 242.29 209.25L227.73 200.84C227.666 200.811 227.609 200.769 227.563 200.717C227.516 200.665 227.481 200.603 227.46 200.537C227.438 200.47 227.431 200.4 227.439 200.33C227.446 200.261 227.469 200.194 227.504 200.133C227.539 200.073 227.586 200.02 227.643 199.979C227.7 199.938 227.764 199.91 227.833 199.895C227.901 199.881 227.972 199.881 228.04 199.895C228.109 199.91 228.173 199.939 228.23 199.98L242.79 208.39C242.905 208.455 242.99 208.563 243.026 208.691C243.061 208.818 243.045 208.955 242.98 209.07C242.934 209.146 242.869 209.208 242.792 209.252C242.715 209.296 242.629 209.319 242.54 209.32Z" fill="#FAFAFA"/>
<path d="M326.48 271.36V257.29L423.97 201V215.07L326.48 271.36Z" fill="#975102"/>
<path opacity="0.3" d="M326.48 271.36V257.29L423.97 201V215.07L326.48 271.36Z" fill="black"/>
<path d="M237.11 219.76L326.48 271.36V257.29L281.79 137.68L237.11 205.69V219.76Z" fill="#975102"/>
<path opacity="0.1" d="M237.11 219.76L326.48 271.36V257.29L281.79 137.68L237.11 205.69V219.76Z" fill="black"/>
<path d="M281.79 137.68L234.88 209.09C234.88 209.09 249.1 191.45 259.88 175.67C271.43 158.79 281.79 137.68 281.79 137.68Z" fill="#975102"/>
<path d="M302.1 257.29C288.98 223.29 282.79 182.86 281.79 137.68C277.35 176.35 271.5 211 261.48 233.83L302.1 257.29Z" fill="#455A64"/>
<path d="M328.3 260.93C308.925 221.414 293.351 180.145 281.79 137.68L379.28 81.4C390.841 123.862 406.415 165.127 425.79 204.64L328.3 260.93Z" fill="#975102"/>
<path d="M328.3 260.93L281.79 137.68C293.351 180.145 308.925 221.414 328.3 260.93Z" fill="#975102"/>
<path opacity="0.4" d="M281.79 137.68L234.88 209.09C234.88 209.09 249.1 191.45 259.88 175.67C271.43 158.79 281.79 137.68 281.79 137.68Z" fill="white"/>
<path opacity="0.4" d="M328.3 260.93L281.79 137.68C293.351 180.145 308.925 221.414 328.3 260.93Z" fill="white"/>
<path d="M272.06 199.59C269.12 212.68 265.67 224.29 261.48 233.83L302.1 257.29C294.46 237.46 289.18 215.45 285.89 191.6L272.06 199.59Z" fill="#37474F"/>
<path d="M350.85 271.86C350.762 271.862 350.675 271.837 350.6 271.79L330.29 260.07C330.176 260.001 330.093 259.891 330.059 259.762C330.026 259.633 330.044 259.496 330.11 259.38C330.142 259.323 330.185 259.273 330.237 259.232C330.289 259.192 330.349 259.163 330.412 259.146C330.475 259.129 330.541 259.125 330.606 259.135C330.671 259.144 330.734 259.166 330.79 259.2L351.1 270.92C351.214 270.989 351.297 271.099 351.331 271.228C351.364 271.357 351.346 271.494 351.28 271.61C351.236 271.686 351.174 271.748 351.098 271.792C351.023 271.836 350.937 271.859 350.85 271.86Z" fill="#F0F0F0"/>
<path d="M356.59 280.74V266.67H345.1V280.74C345.148 281.245 345.33 281.728 345.627 282.14C345.924 282.551 346.326 282.876 346.79 283.08C348.047 283.721 349.439 284.055 350.85 284.055C352.261 284.055 353.653 283.721 354.91 283.08C355.373 282.875 355.773 282.55 356.069 282.139C356.364 281.727 356.544 281.244 356.59 280.74Z" fill="#37474F"/>
<path d="M346.79 264.32C348.049 263.684 349.44 263.352 350.85 263.352C352.26 263.352 353.651 263.684 354.91 264.32C357.15 265.62 357.15 267.72 354.91 269.01C353.653 269.651 352.261 269.985 350.85 269.985C349.439 269.985 348.047 269.651 346.79 269.01C344.54 267.72 344.54 265.62 346.79 264.32Z" fill="#455A64"/>
<path d="M356.59 270.42V272.58C356.536 273.042 356.361 273.482 356.082 273.855C355.802 274.227 355.429 274.519 355 274.7C353.71 275.356 352.283 275.698 350.835 275.698C349.387 275.698 347.96 275.356 346.67 274.7C346.246 274.518 345.877 274.227 345.601 273.856C345.325 273.486 345.152 273.049 345.1 272.59V270.43C344.796 270.706 344.551 271.041 344.379 271.413C344.208 271.786 344.113 272.19 344.1 272.6C344.144 273.24 344.359 273.856 344.723 274.384C345.088 274.912 345.587 275.332 346.17 275.6C347.617 276.33 349.215 276.71 350.835 276.71C352.455 276.71 354.053 276.33 355.5 275.6C356.085 275.333 356.586 274.914 356.952 274.386C357.319 273.858 357.535 273.241 357.58 272.6C357.573 272.188 357.482 271.782 357.312 271.407C357.142 271.032 356.896 270.696 356.59 270.42Z" fill="#F0F0F0"/>
<path d="M444.27 217.72C444.183 217.716 444.097 217.692 444.02 217.65L423.71 205.92C423.596 205.853 423.514 205.744 423.48 205.617C423.447 205.49 423.464 205.354 423.53 205.24C423.597 205.126 423.706 205.044 423.833 205.01C423.96 204.977 424.096 204.994 424.21 205.06L444.52 216.78C444.636 216.847 444.721 216.957 444.756 217.086C444.792 217.215 444.775 217.353 444.71 217.47C444.666 217.547 444.601 217.611 444.524 217.655C444.447 217.699 444.359 217.721 444.27 217.72Z" fill="#F0F0F0"/>
<path d="M450 226.6V212.53H438.53V226.6C438.577 227.104 438.757 227.587 439.053 227.998C439.348 228.409 439.747 228.734 440.21 228.94C441.47 229.578 442.863 229.91 444.275 229.91C445.687 229.91 447.08 229.578 448.34 228.94C448.799 228.732 449.194 228.405 449.486 227.994C449.778 227.583 449.955 227.102 450 226.6Z" fill="#37474F"/>
<path d="M440.21 210.18C441.47 209.542 442.863 209.21 444.275 209.21C445.687 209.21 447.08 209.542 448.34 210.18C450.58 211.48 450.58 213.58 448.34 214.87C447.08 215.508 445.687 215.84 444.275 215.84C442.863 215.84 441.47 215.508 440.21 214.87C438 213.58 438 211.48 440.21 210.18Z" fill="#455A64"/>
<path d="M450 216.28V218.44C449.945 218.899 449.769 219.336 449.492 219.706C449.215 220.077 448.845 220.368 448.42 220.55C447.13 221.206 445.703 221.548 444.255 221.548C442.807 221.548 441.38 221.206 440.09 220.55C439.665 220.368 439.295 220.077 439.018 219.706C438.741 219.336 438.565 218.899 438.51 218.44V216.27C438.207 216.546 437.962 216.881 437.79 217.254C437.618 217.626 437.523 218.03 437.51 218.44C437.556 219.081 437.773 219.697 438.139 220.225C438.505 220.753 439.006 221.173 439.59 221.44C441.037 222.17 442.635 222.55 444.255 222.55C445.875 222.55 447.473 222.17 448.92 221.44C449.503 221.172 450.004 220.752 450.37 220.224C450.736 219.696 450.953 219.08 451 218.44C450.99 218.031 450.895 217.628 450.723 217.257C450.551 216.885 450.305 216.553 450 216.28Z" fill="#F0F0F0"/>
<path d="M132 293.82C132.271 294.511 132.456 295.233 132.55 295.97C132.809 296.732 132.871 297.547 132.73 298.34C132.464 298.864 132.086 299.323 131.623 299.684C131.16 300.045 130.623 300.3 130.05 300.43C128.749 300.643 127.416 300.353 126.32 299.62C124.589 298.322 122.484 297.62 120.32 297.62C118.385 297.495 116.545 296.732 115.09 295.45C113.65 294.17 113.99 291.89 116.49 291.9C119.49 291.9 123.7 292.45 127.77 291.9L132 293.82Z" fill="#263238"/>
<path d="M146.54 289.11C146.806 289.803 146.991 290.524 147.09 291.26C147.347 292.023 147.405 292.838 147.26 293.63C146.995 294.153 146.619 294.611 146.157 294.972C145.696 295.333 145.161 295.588 144.59 295.72C143.286 295.933 141.949 295.644 140.85 294.91C139.123 293.604 137.015 292.901 134.85 292.91C132.915 292.785 131.075 292.022 129.62 290.74C128.17 289.46 128.52 287.18 131.02 287.19C134.02 287.19 138.23 287.74 142.3 287.19L146.54 289.11Z" fill="#263238"/>
<path d="M146.54 286V289.68C146.54 289.68 146.04 290.9 143.94 290.98C143.402 291.013 142.864 290.908 142.378 290.676C141.891 290.443 141.472 290.09 141.16 289.65V286H146.54Z" fill="#FFA8A7"/>
<path d="M139.53 261.91C139.53 266.48 140.81 287.57 140.81 287.57C140.81 287.57 142.68 289.93 146.74 287.57L148.12 264.17L139.53 261.91Z" fill="#338866"/>
<g opacity="0.1">
<path d="M139.53 261.91C139.53 266.48 140.81 287.57 140.81 287.57C140.81 287.57 142.68 289.93 146.74 287.57L148.12 264.17L139.53 261.91Z" fill="black"/>
</g>
<path d="M132.75 290.75L132.02 294.43C132.02 294.43 131.52 295.65 129.42 295.73C128.882 295.764 128.343 295.66 127.857 295.427C127.37 295.194 126.951 294.841 126.64 294.4L126.94 290.17L132.75 290.75Z" fill="#FFA8A7"/>
<path d="M128.58 268.23C128.2 270.34 126.58 291.48 126.58 291.48C126.58 291.48 128.65 294.37 132.71 292.01L137.05 271.36L128.58 268.23Z" fill="#338866"/>
<path d="M33.82 281.92V262.81H28.08V281.92C28.103 282.172 28.193 282.414 28.3407 282.619C28.4883 282.825 28.6884 282.988 28.92 283.09C29.5487 283.41 30.2443 283.578 30.95 283.578C31.6557 283.578 32.3513 283.41 32.98 283.09C33.2116 282.988 33.4117 282.825 33.5593 282.619C33.707 282.414 33.797 282.172 33.82 281.92Z" fill="#37474F"/>
<path d="M30.95 264.47C32.5351 264.47 33.82 263.727 33.82 262.81C33.82 261.893 32.5351 261.15 30.95 261.15C29.3649 261.15 28.08 261.893 28.08 262.81C28.08 263.727 29.3649 264.47 30.95 264.47Z" fill="#455A64"/>
<path d="M131.32 225.64V206.53H125.57V225.64C125.594 225.893 125.685 226.135 125.835 226.341C125.984 226.547 126.187 226.709 126.42 226.81C127.049 227.13 127.744 227.298 128.45 227.298C129.156 227.298 129.851 227.13 130.48 226.81C130.712 226.708 130.912 226.545 131.059 226.339C131.207 226.134 131.297 225.892 131.32 225.64Z" fill="#263238"/>
<path d="M126.42 205.36C127.049 205.04 127.744 204.872 128.45 204.872C129.156 204.872 129.851 205.04 130.48 205.36C130.727 205.44 130.943 205.597 131.095 205.807C131.248 206.017 131.331 206.27 131.331 206.53C131.331 206.79 131.248 207.043 131.095 207.253C130.943 207.463 130.727 207.62 130.48 207.7C129.851 208.02 129.156 208.188 128.45 208.188C127.744 208.188 127.049 208.02 126.42 207.7C126.173 207.62 125.957 207.463 125.805 207.253C125.652 207.043 125.569 206.79 125.569 206.53C125.569 206.27 125.652 206.017 125.805 205.807C125.957 205.597 126.173 205.44 126.42 205.36Z" fill="#455A64"/>
<path d="M20.8 256.45V258.14C20.8233 258.59 20.9522 259.028 21.1763 259.419C21.4005 259.81 21.7135 260.143 22.09 260.39L39.81 270.62C40.2117 270.822 40.6552 270.928 41.105 270.928C41.5548 270.928 41.9983 270.822 42.4 270.62L141.4 213.49C141.777 213.242 142.09 212.909 142.316 212.519C142.542 212.128 142.673 211.69 142.7 211.24V209.55C142.675 209.099 142.544 208.661 142.318 208.27C142.092 207.879 141.778 207.547 141.4 207.3L123.68 197.07C123.278 196.868 122.835 196.762 122.385 196.762C121.935 196.762 121.492 196.868 121.09 197.07L22.09 254.2C21.7135 254.447 21.4005 254.78 21.1763 255.171C20.9522 255.562 20.8233 256 20.8 256.45Z" fill="#37474F"/>
<path d="M41.11 266.24V270.93C40.6564 270.937 40.2086 270.827 39.81 270.61L22.1 260.39C21.7216 260.144 21.4067 259.812 21.1808 259.421C20.9549 259.03 20.8244 258.591 20.8 258.14V256.45C20.8211 256.048 20.9264 255.656 21.109 255.297C21.2916 254.939 21.5474 254.623 21.86 254.37C21.39 254.77 21.47 255.37 22.1 255.7L39.81 265.92C40.2086 266.137 40.6564 266.247 41.11 266.24Z" fill="#263238"/>
<path d="M22.09 255.7L39.81 265.93C40.2135 266.132 40.6586 266.238 41.11 266.238C41.5614 266.238 42.0065 266.132 42.41 265.93L141.41 208.8C141.568 208.748 141.705 208.647 141.802 208.513C141.899 208.378 141.952 208.216 141.952 208.05C141.952 207.884 141.899 207.722 141.802 207.587C141.705 207.453 141.568 207.352 141.41 207.3L123.69 197.07C123.288 196.868 122.845 196.762 122.395 196.762C121.945 196.762 121.502 196.868 121.1 197.07L22.1 254.2C21.9419 254.251 21.804 254.351 21.7059 254.485C21.6077 254.619 21.5543 254.78 21.5531 254.946C21.552 255.112 21.6033 255.275 21.6997 255.41C21.7961 255.545 21.9326 255.647 22.09 255.7Z" fill="#37474F"/>
<path d="M30.66 260.64L132.21 202.02L132.89 202.41L31.34 261.04L30.66 260.64Z" fill="#263238"/>
<path d="M115.02 257.14L119.79 256.65L118.81 249.35L113.64 249.84L115.02 257.14Z" fill="#FFA8A7"/>
<path d="M119.39 253.69L119.31 253.04C119.77 253.22 122.41 258.04 124.02 260.04C125.63 262.04 128.36 263.84 128.96 265.34C129.56 266.84 125.55 267.9 124.13 267.72C122.49 267.5 119.6 266.48 118.84 265.45C118.08 264.42 117.68 262.86 117.06 262.11C116.44 261.36 114.06 259.77 113.71 258.46C113.61 257.301 113.67 256.133 113.89 254.99C114.07 254.13 113.99 253.2 114.28 253.27L114.41 253.96C115.203 254.384 116.105 254.562 117 254.47C117.7 254.45 119.42 254.22 119.39 253.69Z" fill="#263238"/>
<path d="M131.18 247.69L136.22 247.19L133.62 239.33L128.27 239.19L131.18 247.69Z" fill="#FFA8A7"/>
<path d="M135.66 245.51C135.9 245.51 136.27 245.76 136.9 246.32C138.616 247.517 140.403 248.609 142.25 249.59C143.96 250.44 147.25 251.76 148.78 252.43C149.72 252.86 149.68 253.99 148.71 254.64C147.821 255.267 146.816 255.713 145.753 255.949C144.691 256.186 143.592 256.21 142.52 256.02C140.99 255.68 136.14 253.02 134.88 253.13C133.62 253.24 131.26 253.19 130.32 252.54C129.38 251.89 129.82 249.62 130.09 248.45C130.36 247.28 130.09 245.79 130.55 245.88L130.85 246.76C131.4 247.59 135.96 246.94 135.85 246.19L135.66 245.51Z" fill="#263238"/>
<path d="M89.33 204.9C88.99 212.39 88.33 215.1 95.62 220.65C99.68 223.76 107.62 228.73 107.62 228.73C107.251 231.695 107.517 234.705 108.4 237.56C110 242.9 114 252.28 114 252.28C114.859 252.61 115.776 252.763 116.696 252.729C117.615 252.694 118.518 252.474 119.35 252.08C119.35 252.08 118.13 244.25 117.57 238.65C116.68 229.8 115.91 226.81 115.52 225.18C115.18 223.73 107.52 215.7 105.9 213.28L121.46 221.1C121.46 221.1 121.54 225.91 122.46 228.49C124.89 235.17 130.04 245.33 130.04 245.33C130.04 245.33 133.96 245.73 135.6 244.45C135.6 244.45 130.6 219.97 129.99 217.9C128.9 214.29 115.71 204.8 112.99 202.52C111.45 201.21 109.73 199.82 109.73 199.82L89.33 204.9Z" fill="#338866"/>
<path opacity="0.1" d="M105.94 213.28C107.467 212.048 108.617 210.413 109.26 208.56C109.176 209.768 109.003 210.968 108.74 212.15C108.35 213.72 121.5 221.15 121.5 221.15L105.94 213.28Z" fill="black"/>
<path d="M125 210.84C125.818 211.14 126.693 211.249 127.56 211.16C128.648 210.985 129.677 210.549 130.56 209.89C130.974 209.627 131.334 209.288 131.62 208.89C131.746 208.714 131.833 208.514 131.875 208.301C131.916 208.089 131.911 207.87 131.86 207.66C131.69 207.28 131.15 207.21 130.79 207.17C130.162 207.082 129.543 206.938 128.94 206.74C128.64 206.65 128.34 206.56 128.04 206.44C127.74 206.32 127.36 206.12 127.04 205.97C126.85 205.88 126.34 205.63 126.5 205.35C126.573 205.25 126.679 205.179 126.8 205.15C127.16 205.02 127.53 204.94 127.89 204.81C128.249 204.684 128.565 204.459 128.8 204.16C128.856 204.093 128.898 204.014 128.922 203.93C128.946 203.845 128.952 203.757 128.94 203.67C128.914 203.587 128.869 203.51 128.808 203.448C128.748 203.385 128.673 203.338 128.59 203.31C128.427 203.25 128.254 203.22 128.08 203.22L126.5 203.1C125.462 203.188 124.416 203.093 123.41 202.82C122.725 202.448 122.123 201.941 121.64 201.33C119.87 199.47 114.08 191.38 114.08 191.38L110.61 179.89C110.61 179.89 109.75 173.82 105.13 172.74C104.21 174.17 102.66 174.23 104.66 181.04C106.1 185.91 107.56 192.79 108.72 194.61C109.214 195.382 109.78 196.105 110.41 196.77C113.76 200.34 116.75 203.32 120.01 206.94C120.29 207.24 120.5 207.6 120.78 207.94C121.885 209.285 123.348 210.29 125 210.84Z" fill="#FFA8A7"/>
<path d="M102.89 172.36C103.169 172.728 103.363 173.152 103.46 173.603C103.557 174.054 103.553 174.52 103.45 174.97C103.31 177.281 103.605 179.598 104.32 181.8C105.23 184.72 107.7 193.03 107.7 193.03C108.885 193.247 110.104 193.203 111.27 192.898C112.436 192.594 113.522 192.039 114.45 191.27L111.12 179C111.12 179 109.1 170.64 102.89 172.36Z" fill="#E0E0E0" fill-opacity="0.6"/>
<path d="M90.59 176.28C90.59 176.28 88.99 177.59 88.99 181.73V190.66L89.22 205.66C92.42 209.14 106.8 207.82 110.35 200.23C110.35 200.23 109.84 184.18 109.35 180.66C108.69 175.88 107.49 172.43 102.88 172.33L95.88 173.97L90.59 176.28Z" fill="#EBEBEB"/>
<path d="M86.41 219.69C86.945 220.385 87.6282 220.952 88.41 221.35C89.4295 221.793 90.5414 221.982 91.65 221.9C92.1356 221.905 92.6176 221.817 93.07 221.64C93.2713 221.559 93.4529 221.436 93.6029 221.279C93.7529 221.122 93.8678 220.935 93.94 220.73C94.01 220.32 93.58 219.97 93.3 219.73C92.8196 219.315 92.3747 218.86 91.97 218.37C91.7595 218.138 91.5625 217.894 91.38 217.64C91.16 217.33 90.97 217 90.76 216.64C90.55 216.28 90.35 215.99 90.64 215.84C90.7558 215.795 90.8842 215.795 91 215.84C91.37 215.92 91.73 216.06 92.1 216.13C92.4662 216.229 92.8541 216.211 93.21 216.08C93.2938 216.053 93.3711 216.009 93.4366 215.951C93.5021 215.892 93.5544 215.82 93.59 215.74C93.6154 215.657 93.6205 215.569 93.6049 215.484C93.5892 215.399 93.5532 215.318 93.5 215.25C93.3935 215.113 93.2651 214.995 93.12 214.9L91.84 213.95C90.9186 213.465 90.0894 212.822 89.39 212.05C89.0072 211.37 88.7721 210.617 88.7 209.84C88.2 207.32 87.7 197.39 87.7 197.39L90.95 185.83C90.95 185.83 93.95 179.64 90.62 176.24C89.08 176.95 87.29 176.79 85.32 183.6C83.91 188.48 81.44 195.07 81.44 197.22C81.4417 198.139 81.5288 199.057 81.7 199.96C82.61 204.77 83.53 208.88 84.33 213.69C84.4 214.1 84.39 214.52 84.46 214.92C84.6461 216.662 85.3222 218.316 86.41 219.69Z" fill="#FFA8A7"/>
<path d="M90.59 176.28C89.4279 176.474 88.3569 177.031 87.53 177.87C86.17 179.74 85.1758 181.85 84.6 184.09C83.8 187.09 81.41 195.38 81.41 195.38C82.2918 196.199 83.3423 196.815 84.4877 197.185C85.6331 197.555 86.8457 197.669 88.04 197.52L91.86 185.34C91.86 185.34 94.14 178.34 90.59 176.28Z" fill="#E0E0E0" fill-opacity="0.6"/>
<path d="M97.06 159.7C97.058 160.982 97.4366 162.237 98.1479 163.304C98.8592 164.371 99.8711 165.203 101.056 165.695C102.24 166.187 103.544 166.316 104.802 166.066C106.06 165.816 107.215 165.199 108.122 164.292C109.029 163.385 109.646 162.23 109.896 160.972C110.146 159.714 110.017 158.41 109.525 157.226C109.033 156.041 108.201 155.029 107.134 154.318C106.067 153.607 104.812 153.228 103.53 153.23C101.815 153.233 100.171 153.915 98.9579 155.128C97.7452 156.341 97.0627 157.985 97.06 159.7Z" fill="#263238"/>
<path d="M92.94 163.57C93.3066 165.403 93.7706 167.216 94.33 169C94.5896 169.481 95.0278 169.84 95.55 170L95.48 166.72L92.94 163.57Z" fill="#263238"/>
<path d="M94.18 156.88C93.8332 156.84 93.4819 156.88 93.1527 156.996C92.8236 157.112 92.5251 157.301 92.28 157.55C91.46 158.39 91.92 161 92.94 163.55L94.81 163.76L94.18 156.88Z" fill="#263238"/>
<path d="M95.37 163.78C94.99 164.01 94.46 163.29 94 162.78C93.8167 162.574 93.5845 162.418 93.3249 162.326C93.0652 162.233 92.7865 162.208 92.5144 162.252C92.2423 162.296 91.9857 162.407 91.7682 162.576C91.5507 162.746 91.3794 162.967 91.27 163.22C90.5 164.84 91.94 166.98 93.12 167.35C95.12 168 95.48 166.68 95.48 166.68L95.64 174.07C97.4 176.07 103.44 175.57 102.3 173.88V171.63C103.212 171.775 104.138 171.822 105.06 171.77C106.57 171.54 107.51 170.35 107.97 168.77C108.7 166.15 108.97 164.03 108.36 158.88C107.68 153.23 101.11 153.17 97.56 155.41C94.01 157.65 95.37 163.78 95.37 163.78Z" fill="#FFA8A7"/>
<path d="M95.37 164.41C95.18 164.41 94.46 163.23 94 162.8C93.35 162.21 94.18 156.88 94.18 156.88C94.0103 156.419 93.9796 155.919 94.0916 155.441C94.2036 154.962 94.4533 154.528 94.81 154.19C95.69 153.19 97.18 153.1 99.7 152.71C101.03 152.5 103.04 152.13 104.37 151.88C105.95 151.58 107.26 151.27 108.37 152.24C108.808 152.621 109.117 153.129 109.255 153.693C109.393 154.257 109.353 154.85 109.14 155.39C109.024 155.634 108.872 155.86 108.69 156.06C108.386 156.416 107.992 156.685 107.55 156.84C107.55 156.84 106.86 157.45 104.46 157.75C102.247 157.915 100.024 157.871 97.82 157.62C97.12 157.53 96.97 158.2 96.6 160.04C96.28 161.66 96 164.4 95.37 164.41Z" fill="#263238"/>
<path d="M94.19 157.3L91.92 156.08C91.9933 155.928 92.0965 155.792 92.2235 155.68C92.3505 155.568 92.4986 155.483 92.6591 155.43C92.8196 155.377 92.9891 155.357 93.1577 155.37C93.3262 155.384 93.4902 155.432 93.64 155.51C93.9417 155.683 94.1664 155.964 94.2686 156.296C94.3707 156.629 94.3426 156.988 94.19 157.3Z" fill="#263238"/>
<path d="M102.3 171.65C100.749 171.355 99.2294 170.917 97.76 170.34C97.067 169.984 96.4985 169.426 96.13 168.74C96.3091 169.426 96.6255 170.069 97.06 170.63C97.92 171.73 102.3 172.54 102.3 172.54V171.65Z" fill="#F28F8F"/>
<path d="M101.49 162.94C101.486 163.074 101.443 163.203 101.366 163.312C101.289 163.421 101.181 163.505 101.057 163.554C100.932 163.602 100.796 163.613 100.665 163.584C100.535 163.556 100.416 163.49 100.323 163.394C100.229 163.298 100.167 163.177 100.142 163.045C100.117 162.914 100.132 162.778 100.184 162.655C100.236 162.532 100.323 162.427 100.434 162.353C100.546 162.279 100.676 162.24 100.81 162.24C100.901 162.241 100.99 162.26 101.073 162.296C101.157 162.332 101.232 162.384 101.295 162.449C101.358 162.514 101.408 162.591 101.441 162.675C101.475 162.759 101.491 162.849 101.49 162.94Z" fill="#263238"/>
<path d="M100.41 160.15L99 161C98.8983 160.801 98.8769 160.571 98.9402 160.357C99.0035 160.143 99.1466 159.961 99.34 159.85C99.523 159.754 99.7357 159.732 99.9346 159.788C100.133 159.843 100.304 159.973 100.41 160.15Z" fill="#263238"/>
<path d="M102 167.6L103.54 168.18C103.474 168.379 103.332 168.544 103.144 168.64C102.957 168.735 102.74 168.753 102.54 168.69C102.325 168.615 102.149 168.459 102.048 168.255C101.947 168.051 101.93 167.816 102 167.6Z" fill="#F28F8F"/>
<path d="M107.67 160.74L106.36 159.74C106.422 159.652 106.502 159.578 106.594 159.522C106.685 159.466 106.787 159.428 106.894 159.413C107 159.397 107.109 159.402 107.213 159.429C107.317 159.457 107.415 159.504 107.5 159.57C107.673 159.706 107.786 159.904 107.818 160.121C107.85 160.339 107.797 160.56 107.67 160.74Z" fill="#263238"/>
<path d="M107.09 162.75C107.084 162.881 107.04 163.008 106.963 163.114C106.886 163.22 106.779 163.301 106.656 163.347C106.533 163.393 106.4 163.402 106.272 163.373C106.144 163.344 106.027 163.278 105.937 163.183C105.846 163.088 105.785 162.969 105.762 162.84C105.738 162.711 105.753 162.578 105.804 162.457C105.856 162.336 105.942 162.234 106.051 162.161C106.161 162.089 106.289 162.05 106.42 162.05C106.51 162.051 106.599 162.07 106.682 162.107C106.765 162.143 106.839 162.195 106.902 162.26C106.964 162.325 107.013 162.402 107.045 162.486C107.077 162.57 107.093 162.66 107.09 162.75Z" fill="#263238"/>
<path d="M103.76 162.21L103.84 166.3L106.26 165.76L103.76 162.21Z" fill="#F28F8F"/>
<path d="M52.74 207C53.84 207.34 55.74 206.33 58.74 211C60.46 213.66 65.3 220.16 65.3 220.16C65.3 220.16 72.79 213 73.2 212C73.61 211 73.27 210.48 73.75 208.39C74.23 206.3 74.49 205.67 74.43 204.97C74.37 204.27 75.53 204.65 75.65 205.55C75.77 206.45 75.36 207.43 75.75 207.4C76.14 207.37 77.34 205.4 77.75 203.79C78.16 202.18 79.04 202.17 79.12 202.79C79.171 203.14 79.154 203.496 79.07 203.84C79.4204 203.928 79.7416 204.106 80.0014 204.357C80.2611 204.608 80.4503 204.923 80.55 205.27C80.9749 206.96 80.7389 208.748 79.89 210.27C78.89 212.48 77.25 213.17 76.63 214.1C76.01 215.03 70.63 222.69 67.86 225.2C66.12 226.78 65.02 227.44 63.11 225.78C61.2 224.12 53.74 215.4 53.74 215.4L52.74 207Z" fill="#B16668"/>
<path d="M67.41 264.44C67.05 264.82 66.63 265.27 66.68 265.75C66.81 266.779 67.2655 267.739 67.98 268.49C69.0001 269.83 69.6455 271.418 69.85 273.09C70.03 274.51 70.16 278.09 71.96 279.55C73.76 281.01 78.12 281.69 78.12 279.05C78.12 276.41 72.92 266.27 72.92 266.27L67.41 264.44Z" fill="#263238"/>
<path d="M69.83 266.13C70.5563 267.974 71.1446 269.869 71.59 271.8C72.04 273.92 72.66 275.41 73.74 275.98C74.82 276.55 76.43 276.44 75.83 274.98C75.23 273.52 72.92 266.25 72.92 266.25L69.83 266.13Z" fill="#9A4A4D"/>
<path d="M55.84 230.49C55.84 230.49 64.46 234.03 68.63 236.27C72.8 238.51 76.77 240.7 77.63 242.5C78.49 244.3 78.28 248.95 77.82 253.32C77.36 257.69 76.41 265.54 76.41 265.54L64.2 247.24L51.9 239.13L55.84 230.49Z" fill="#338866"/>
<path opacity="0.1" d="M71.73 249.35C70.53 246.55 67.9 244.68 65.44 243.16C63.44 241.91 58.44 239 56.68 238C57.0654 237.045 57.2819 236.03 57.32 235C56.7986 236.196 56.1903 237.353 55.5 238.46L68.07 247.84L76.68 263.26C76.68 263.26 72.94 252.15 71.73 249.35Z" fill="black"/>
<path d="M77.42 279.25C77.07 279.48 77.12 280.35 77.15 280.99C77.18 281.63 76.72 282.47 77.65 283.46C78.58 284.45 80.15 284.53 81.42 285.88C82.69 287.23 84.63 289.72 88.12 289.88C91.61 290.04 94 288.53 94.47 287.43C94.94 286.33 94.22 285.43 91.87 284.57C89.37 283.63 88.66 283.35 88.66 283.35L77.42 279.25Z" fill="#263238"/>
<path d="M80 271.73C80 271.73 82.35 275.98 83.67 277.89C85.128 279.879 86.8895 281.627 88.89 283.07C89.33 283.41 90.3 284.01 90.66 284.28C90.7415 284.331 90.8108 284.399 90.863 284.48C90.9153 284.561 90.9493 284.652 90.9626 284.747C90.976 284.843 90.9683 284.94 90.9402 285.032C90.9121 285.124 90.8643 285.208 90.8 285.28C90.21 286.13 87.16 286.93 85.17 286C83.18 285.07 80.96 282.94 79.72 282.11L78 281C77.7977 280.86 77.6345 280.671 77.526 280.451C77.4175 280.23 77.3672 279.985 77.38 279.74C77.38 279.6 77.38 279.43 77.38 279.24C77.38 278.19 75.25 274.37 75.25 274.37L80 271.73Z" fill="#B16668"/>
<path d="M38.51 235.14C38.51 238.62 38.41 241.53 40.45 244.58C42.49 247.63 45.45 248.49 50.68 250.25C55.04 251.72 61.27 254.07 62.54 254.35C63.81 254.63 64.07 255.3 64.37 257.55C64.67 259.8 66.18 263.28 69.58 267.31C72.052 270.305 74.3587 273.433 76.49 276.68C76.49 276.68 80.05 276.68 81.41 274.31C81.41 274.31 71.51 250.96 69.93 248.31C68.35 245.66 55.5 238.49 55.5 238.49C55.5 238.49 55.72 233.66 55.89 230.14L38.51 235.14Z" fill="#338866"/>
<path d="M44.83 207.61L41.15 208.44C41.15 208.44 42.97 211.01 41.68 216.15C40.77 219.79 39.9 219.99 37.89 220.78C38.04 227.43 38.51 235.14 38.51 235.14C38.51 235.14 42.59 238.14 50.92 236.91C58.24 235.91 58.13 231.43 58.13 231.43L55.42 228.68L55.49 223.07C56.3715 222.26 57.0385 221.244 57.4311 220.113C57.8238 218.983 57.9299 217.772 57.74 216.59C57.29 212.19 52.74 206.97 52.74 206.97H51.4L44.83 207.61Z" fill="#338866"/>
<path opacity="0.5" d="M44.83 207.61L41.15 208.44C41.15 208.44 42.97 211.01 41.68 216.15C40.77 219.79 39.9 219.99 37.89 220.78C38.04 227.43 38.51 235.14 38.51 235.14C38.51 235.14 42.59 238.14 50.92 236.91C58.24 235.91 58.13 231.43 58.13 231.43L55.42 228.68L55.49 223.07C56.3715 222.26 57.0385 221.244 57.4311 220.113C57.8238 218.983 57.9299 217.772 57.74 216.59C57.29 212.19 52.74 206.97 52.74 206.97H51.4L44.83 207.61Z" fill="black"/>
<path opacity="0.2" d="M56.54 234.61C52.78 235.46 47.32 234.93 45.34 233.09C43.36 231.25 42.1 226.72 42.83 224C43.5549 220.538 43.5549 216.962 42.83 213.5L42.15 213.21C42.1019 214.202 41.9545 215.187 41.71 216.15C40.8 219.79 39.93 219.99 37.92 220.78C37.92 227.57 38.54 235.14 38.54 235.14C38.54 235.14 42.62 238.14 50.95 236.91C53.0148 236.737 54.9766 235.934 56.57 234.61H56.54Z" fill="black"/>
<path d="M50.66 203.79L47.19 203.88C46.04 203.913 44.8947 203.719 43.8197 203.31C42.7447 202.9 41.7611 202.282 40.9251 201.492C40.0892 200.701 39.4173 199.754 38.948 198.703C38.4786 197.653 38.2211 196.52 38.19 195.37C38.1514 193.993 38.3847 192.622 38.8766 191.335C39.3686 190.048 40.1094 188.87 41.0568 187.87C42.0042 186.87 43.1395 186.066 44.3978 185.505C45.6561 184.944 47.0127 184.636 48.39 184.6C51.1707 184.525 53.8675 185.557 55.8872 187.47C57.9069 189.383 59.0841 192.019 59.16 194.8C59.2219 197.118 58.3618 199.367 56.7684 201.052C55.175 202.737 52.9783 203.722 50.66 203.79Z" fill="#263238"/>
<path d="M45.63 182.19C47.18 184.36 45.63 185.91 43.46 187.46C41.29 189.01 39.32 189.97 37.77 187.8C36.22 185.63 36.99 183.15 39.16 181.6C41.33 180.05 44.08 180 45.63 182.19Z" fill="#263238"/>
<path d="M40.39 189.14L38.21 190.83C38.0917 190.693 38.0025 190.533 37.9478 190.36C37.8931 190.187 37.8741 190.005 37.8919 189.824C37.9096 189.644 37.9638 189.469 38.0512 189.31C38.1385 189.151 38.2572 189.012 38.4 188.9C38.6988 188.676 39.0725 188.576 39.4431 188.621C39.8138 188.665 40.153 188.851 40.39 189.14Z" fill="#263238"/>
<path d="M55 189.12C56.12 189.74 57.57 192.49 57.59 198.33C57.59 203.33 56.04 204.55 55.24 204.93C54.44 205.31 52.89 205.13 51.37 204.93V206.98C51.37 206.98 54.09 209.98 54 211.33C53.91 212.68 50.51 213.4 48.52 212.12C47.079 211.074 45.8247 209.793 44.81 208.33L44.66 201.47C44.66 201.47 43.8 202.35 42.26 201.08C40.98 200.02 40.51 198.2 41.46 197.19C41.704 196.949 42.0019 196.769 42.3291 196.666C42.6562 196.563 43.0033 196.539 43.3414 196.597C43.6796 196.655 43.9991 196.792 44.2736 196.998C44.5482 197.204 44.7697 197.472 44.92 197.78C46.9 197.643 48.8145 197.014 50.49 195.95C51.7281 195.249 52.7824 194.265 53.5663 193.077C54.3503 191.89 54.8416 190.534 55 189.12Z" fill="#B16668"/>
<path d="M52 197.24C52.0083 197.323 52.0001 197.406 51.9758 197.486C51.9516 197.566 51.9118 197.64 51.8588 197.704C51.8058 197.768 51.7406 197.821 51.667 197.86C51.5934 197.899 51.5129 197.922 51.43 197.93C51.2686 197.927 51.1141 197.864 50.9967 197.753C50.8792 197.642 50.8073 197.491 50.7948 197.33C50.7823 197.169 50.8302 197.009 50.9292 196.882C51.0281 196.754 51.171 196.668 51.33 196.64C51.4975 196.634 51.6607 196.694 51.7855 196.805C51.9104 196.917 51.9872 197.073 52 197.24Z" fill="#263238"/>
<path d="M52.31 201.43L53.77 201.85C53.7468 201.948 53.704 202.041 53.6442 202.122C53.5844 202.203 53.5088 202.271 53.422 202.323C53.3351 202.374 53.2388 202.407 53.1389 202.421C53.0389 202.434 52.9372 202.427 52.84 202.4C52.6438 202.338 52.4793 202.202 52.3805 202.021C52.2818 201.841 52.2566 201.629 52.31 201.43Z" fill="#9A4A4D"/>
<path d="M57.08 195.19L55.8 194.35C55.9031 194.188 56.0649 194.073 56.2515 194.028C56.4381 193.983 56.6347 194.013 56.8 194.11C56.9762 194.22 57.1035 194.393 57.1556 194.594C57.2077 194.795 57.1806 195.008 57.08 195.19Z" fill="#263238"/>
<path d="M56.83 196.66C56.8383 196.743 56.83 196.826 56.8058 196.906C56.7816 196.986 56.7418 197.06 56.6888 197.124C56.6358 197.188 56.5706 197.241 56.497 197.28C56.4234 197.319 56.3429 197.342 56.26 197.35C56.0986 197.347 55.9441 197.284 55.8267 197.173C55.7092 197.062 55.6373 196.911 55.6248 196.75C55.6123 196.589 55.6602 196.429 55.7592 196.302C55.8581 196.174 56.001 196.088 56.16 196.06C56.3282 196.052 56.4928 196.11 56.6182 196.222C56.7436 196.335 56.8197 196.492 56.83 196.66Z" fill="#263238"/>
<path d="M54.01 196.07L54.09 200.13L56.04 199.46L54.01 196.07Z" fill="#9A4A4D"/>
<path d="M51.37 204.92C49.77 204.75 46.47 203.92 45.93 202.62C46.1503 203.27 46.5659 203.835 47.12 204.24C48.4598 204.983 49.8923 205.545 51.38 205.91L51.37 204.92Z" fill="#9A4A4D"/>
<path d="M93.91 273.71L68.39 292.12L61.39 297.12L58.08 299.03C57.9757 299.089 57.865 299.136 57.75 299.17L61 296.9L68.22 291.69L89.89 276.05L93.91 273.71Z" fill="#263238"/>
<path d="M81.15 313.23L81 313.15L78.53 311.73C77.9836 311.38 77.5334 310.898 77.22 310.33L49.22 252.6L53.28 254.94L79.93 309.94L81.6 313.36C81.4442 313.34 81.2924 313.296 81.15 313.23Z" fill="#37474F"/>
<path d="M84.92 311.73L82.47 313.14C82.211 313.294 81.9096 313.36 81.61 313.33L79.94 309.91L53.29 254.91L57.35 252.57L85.35 310.3C85.4738 310.548 85.4982 310.834 85.4183 311.1C85.3384 311.366 85.1602 311.591 84.92 311.73Z" fill="#263238"/>
<path d="M70.35 290.12L74.41 287.77L93.91 273.7L89.85 276.05L70.35 290.12Z" fill="black"/>
<path d="M68.18 291.69L61 296.9L57.78 299.22C57.5949 299.271 57.4015 299.285 57.211 299.261C57.0204 299.237 56.8365 299.176 56.67 299.08L54.2 297.66C54.0929 297.618 54.0001 297.546 53.9326 297.453C53.8652 297.36 53.826 297.249 53.8197 297.134C53.8134 297.019 53.8402 296.905 53.897 296.805C53.9538 296.705 54.0381 296.623 54.14 296.57L85.88 273.74L89.88 276.05L68.18 291.69Z" fill="#37474F"/>
<path d="M62.22 296.57C61.77 296.9 61.02 297.38 60.54 297.66L58.1 299.07C57.9852 299.132 57.8646 299.182 57.74 299.22L61 296.9L68.22 291.69L68.43 292.12L62.22 296.57Z" fill="black"/>
<path d="M187.33 219.77L161.81 238.18L154.81 243.18L151.5 245.09C151.396 245.149 151.285 245.196 151.17 245.23L154.39 242.91L161.61 237.7L183.28 222.06L187.33 219.77Z" fill="#263238"/>
<path d="M174.57 259.29L174.42 259.21L172 257.79C171.456 257.436 171.007 256.956 170.69 256.39L142.69 198.66L146.75 201L173.4 256L175.07 259.42C174.897 259.406 174.728 259.362 174.57 259.29Z" fill="#37474F"/>
<path d="M178.34 257.79L175.89 259.2C175.631 259.354 175.33 259.42 175.03 259.39L173.36 256L146.71 201L150.77 198.66L178.77 256.39C178.887 256.635 178.908 256.915 178.829 257.174C178.749 257.433 178.574 257.653 178.34 257.79Z" fill="#263238"/>
<path d="M163.77 236.18L167.83 233.83L187.33 219.76L183.27 222.11L163.77 236.18Z" fill="black"/>
<path d="M161.6 237.75L154.38 243L151.16 245.32C150.975 245.371 150.782 245.385 150.591 245.361C150.4 245.337 150.217 245.276 150.05 245.18L147.58 243.76C147.473 243.718 147.38 243.646 147.313 243.553C147.245 243.46 147.206 243.349 147.2 243.234C147.193 243.119 147.22 243.005 147.277 242.905C147.334 242.805 147.418 242.723 147.52 242.67L179.26 219.84L183.26 222.15L161.6 237.75Z" fill="#37474F"/>
<path d="M155.64 242.63C155.19 242.96 154.44 243.44 153.96 243.72L151.52 245.13C151.405 245.192 151.285 245.242 151.16 245.28L154.38 242.96L161.6 237.75L161.81 238.18L155.64 242.63Z" fill="black"/>
<path d="M194.4 219.18C194.326 219.115 194.246 219.058 194.16 219.01L148 192.37C147.597 192.168 147.151 192.062 146.7 192.062C146.249 192.062 145.803 192.168 145.4 192.37L53.28 245.56L46.46 249.5C46.3975 249.535 46.3403 249.579 46.29 249.63C46.2434 249.659 46.2026 249.696 46.17 249.74C46.1385 249.765 46.1114 249.796 46.09 249.83C45.5609 250.326 45.2423 251.006 45.2 251.73V253.42C45.2233 253.87 45.3522 254.308 45.5764 254.699C45.8005 255.09 46.1135 255.423 46.49 255.67L92.64 282.31C93.0411 282.52 93.4872 282.63 93.94 282.63C94.3929 282.63 94.8389 282.52 95.24 282.31L194.24 225.18C194.619 224.934 194.934 224.602 195.16 224.211C195.386 223.82 195.516 223.381 195.54 222.93V221.24C195.505 220.836 195.386 220.444 195.189 220.089C194.993 219.734 194.724 219.424 194.4 219.18Z" fill="#455A64"/>
<path d="M195.46 221.26V223C195.436 223.451 195.306 223.89 195.08 224.281C194.854 224.672 194.539 225.004 194.16 225.25L95.21 282.38C94.8114 282.597 94.3636 282.707 93.91 282.7V278C94.3628 278.01 94.8106 277.904 95.21 277.69L194.21 220.56C194.84 220.2 194.92 219.64 194.45 219.23C194.746 219.483 194.989 219.793 195.162 220.142C195.336 220.491 195.437 220.871 195.46 221.26Z" fill="#37474F"/>
<path d="M93.91 278V282.7C93.4564 282.707 93.0086 282.597 92.61 282.38L46.46 255.69C46.0835 255.443 45.7705 255.11 45.5463 254.719C45.3222 254.328 45.1933 253.89 45.17 253.44V251.75C45.2123 251.026 45.5308 250.346 46.06 249.85C45.79 250.24 45.93 250.69 46.46 251L92.61 277.64C93.0047 277.871 93.4527 277.995 93.91 278Z" fill="#263238"/>
<path d="M57.35 257.29L158.91 198.66L159.58 199.05L58.03 257.68L57.35 257.29Z" fill="#263238"/>
<path d="M69.54 264.32L171.09 205.69L171.77 206.08L70.21 264.71L69.54 264.32Z" fill="#263238"/>
<path d="M81.72 271.36L183.28 212.73L183.95 213.12L82.39 271.75L81.72 271.36Z" fill="#263238"/>
<path d="M111 326.48V307.37H105.25V326.48C105.273 326.732 105.363 326.974 105.511 327.179C105.658 327.385 105.858 327.548 106.09 327.65C106.72 327.971 107.418 328.138 108.125 328.138C108.832 328.138 109.53 327.971 110.16 327.65C110.392 327.548 110.592 327.385 110.739 327.179C110.887 326.974 110.977 326.732 111 326.48Z" fill="#37474F"/>
<path d="M108.12 309.03C109.705 309.03 110.99 308.287 110.99 307.37C110.99 306.453 109.705 305.71 108.12 305.71C106.535 305.71 105.25 306.453 105.25 307.37C105.25 308.287 106.535 309.03 108.12 309.03Z" fill="#455A64"/>
<path d="M208.5 270.2V251.09H202.75V270.2C202.772 270.453 202.862 270.694 203.009 270.9C203.157 271.106 203.358 271.268 203.59 271.37C204.219 271.69 204.914 271.858 205.62 271.858C206.326 271.858 207.021 271.69 207.65 271.37C207.883 271.268 208.084 271.106 208.234 270.9C208.383 270.695 208.475 270.453 208.5 270.2Z" fill="#263238"/>
<path d="M203.59 249.92C204.219 249.6 204.914 249.432 205.62 249.432C206.326 249.432 207.021 249.6 207.65 249.92C207.897 250 208.113 250.157 208.265 250.367C208.418 250.577 208.501 250.83 208.501 251.09C208.501 251.35 208.418 251.603 208.265 251.813C208.113 252.023 207.897 252.18 207.65 252.26C207.021 252.58 206.326 252.748 205.62 252.748C204.914 252.748 204.219 252.58 203.59 252.26C203.343 252.18 203.127 252.023 202.975 251.813C202.822 251.603 202.739 251.35 202.739 251.09C202.739 250.83 202.822 250.577 202.975 250.367C203.127 250.157 203.343 250 203.59 249.92Z" fill="#455A64"/>
<path d="M98 301V302.69C98.0236 303.141 98.1537 303.58 98.3797 303.971C98.6057 304.362 98.921 304.694 99.3 304.94L117 315.18C117.403 315.382 117.849 315.488 118.3 315.488C118.751 315.488 119.197 315.382 119.6 315.18L218.55 258.05C218.929 257.804 219.244 257.472 219.47 257.081C219.696 256.69 219.826 256.251 219.85 255.8V254.11C219.826 253.659 219.696 253.22 219.47 252.829C219.244 252.438 218.929 252.106 218.55 251.86L200.84 241.63C200.437 241.428 199.991 241.322 199.54 241.322C199.089 241.322 198.643 241.428 198.24 241.63L99.29 298.76C98.9148 299.006 98.6026 299.338 98.3785 299.727C98.1545 300.116 98.0248 300.552 98 301Z" fill="#37474F"/>
<path d="M118.28 310.79V315.49C117.826 315.497 117.379 315.387 116.98 315.17L99.27 305C98.8916 304.754 98.5767 304.422 98.3508 304.031C98.1249 303.64 97.9944 303.201 97.97 302.75V301C97.9911 300.598 98.0963 300.206 98.279 299.847C98.4616 299.489 98.7174 299.173 99.03 298.92C98.56 299.32 98.64 299.92 99.27 300.25L117 310.48C117.393 310.69 117.834 310.797 118.28 310.79Z" fill="#263238"/>
<path d="M99.27 300.26L117 310.49C117.403 310.692 117.849 310.798 118.3 310.798C118.751 310.798 119.197 310.692 119.6 310.49L218.55 253.36C218.708 253.308 218.845 253.207 218.942 253.073C219.039 252.938 219.092 252.776 219.092 252.61C219.092 252.444 219.039 252.282 218.942 252.147C218.845 252.013 218.708 251.912 218.55 251.86L200.84 241.63C200.437 241.428 199.991 241.322 199.54 241.322C199.089 241.322 198.643 241.428 198.24 241.63L99.29 298.76C98.55 299.18 98.55 299.85 99.27 300.26Z" fill="#455A64"/>
<path d="M107.84 305.21L209.39 246.58L210.07 246.97L108.52 305.6L107.84 305.21Z" fill="#263238"/>
<path d="M51.17 239.73C48.47 238.94 38.85 235.79 35.92 234.84C33.92 234.18 32.78 233.71 32.72 231.95C32.66 230.19 35.11 216.87 35.99 213.55C36.76 210.65 38.67 208.66 41.52 208.35C43.45 209.88 43.76 217.75 41.45 219.79C40.59 223.21 39.36 229.3 39.36 229.3C39.36 229.3 44.53 231.98 48.45 233.87C50.45 234.81 53.06 236.16 54.62 236.33C56.18 236.5 58.16 236.54 59.62 237.49C60.3661 237.995 61.0391 238.601 61.62 239.29C62.1 239.83 62.56 240.4 63.01 240.98C63.3342 241.325 63.5347 241.768 63.58 242.24C63.5485 242.536 63.4272 242.816 63.2324 243.041C63.0375 243.266 62.7785 243.426 62.49 243.5C61.6786 243.724 60.8121 243.627 60.07 243.23C59.2697 242.687 58.4231 242.215 57.54 241.82C56.44 241.41 54.54 241.63 53.46 241.04L51.17 239.73Z" fill="#B16668"/>
<path d="M173.61 267.48C173.61 267.48 155.61 261.8 152.3 260.89C148.99 259.98 142.69 258.47 140.84 259.3C138.99 260.13 138.06 261.09 137.84 263.75C137.84 264.25 137.84 266.69 137.84 266.69C137.84 266.69 147 269.52 154.5 269.52C162 269.52 173.61 267.48 173.61 267.48Z" fill="#338866"/>
<g opacity="0.1">
<path d="M173.61 267.48C174.89 267.88 155.69 261.82 152.3 260.89C148.91 259.96 142.69 258.47 140.84 259.3C138.99 260.13 138.06 261.09 137.84 263.75C137.84 264.25 137.84 266.69 137.84 266.69C137.84 266.69 147 269.52 154.5 269.52C162 269.52 173.61 267.48 173.61 267.48Z" fill="black"/>
</g>
<path d="M158.55 235.3L158.41 242.21L165.07 244.4L165.98 235.02L158.55 235.3Z" fill="#FFA8A7"/>
<path d="M153.28 228.67C153.28 228.67 151.82 231.23 152.06 231.46C152.527 231.664 153.023 231.796 153.53 231.85L153.28 228.67Z" fill="#F28F8F"/>
<path d="M156.85 220.24C155.42 221.24 153.85 223.07 153.29 228.42C152.64 234.27 154.05 236.16 154.7 236.65C155.7 237.37 159.54 237.25 160.91 236.65C162.64 235.85 166.02 233.65 167.46 230.46C169.14 226.65 168.97 221.9 166.25 220.38C164.81 219.603 163.203 219.184 161.567 219.16C159.931 219.136 158.313 219.506 156.85 220.24Z" fill="#FFA8A7"/>
<path d="M154.42 222.36C155.185 223.256 156.107 224.005 157.14 224.57C157.81 225.62 156.74 228.52 158.2 229.22C158.2 229.22 158.87 227.03 160.72 227.39C162.57 227.75 162.72 230.15 161.49 231.56C160.26 232.97 159.16 232.35 159.16 232.35C159.087 233.082 159.204 233.82 159.498 234.494C159.792 235.168 160.254 235.756 160.84 236.2C161.564 236.695 162.397 237.006 163.268 237.107C164.139 237.208 165.022 237.096 165.84 236.78C167.812 235.786 169.409 234.179 170.39 232.2C172.88 227.25 173.46 223.2 170.29 221.69C170.3 220.759 169.972 219.856 169.367 219.148C168.762 218.44 167.921 217.975 167 217.84C162.55 216.61 158.94 219.34 155.19 218.57C153.21 218.17 153.31 221 154.42 222.36Z" fill="#263238"/>
<path d="M167 220L169.31 219C169.25 218.841 169.158 218.695 169.04 218.572C168.921 218.449 168.78 218.351 168.623 218.285C168.466 218.218 168.297 218.184 168.126 218.185C167.956 218.186 167.787 218.221 167.631 218.289C167.474 218.357 167.333 218.455 167.216 218.579C167.099 218.703 167.008 218.849 166.949 219.009C166.89 219.169 166.864 219.34 166.873 219.51C166.882 219.68 166.925 219.847 167 220Z" fill="#263238"/>
<path d="M173.91 265.3C173.91 268.94 174.37 272.86 172.91 275.53C171.45 278.2 164.98 283.53 157.24 282.18C152.18 281.33 135.83 275.1 135.83 275.1C135.83 275.1 128.6 272.43 128.56 270.52C128.56 270.06 128.56 269.57 128.56 269.07C128.72 266.54 129.74 263.81 135.04 263.95C140.82 264.1 157.98 266.95 157.98 266.95L173.91 265.3Z" fill="#338866"/>
<path d="M173.32 242.32C172.69 240.42 170.11 237.74 167.7 238.19C163.27 239.01 158.42 240.45 157.13 240.82C157.13 240.82 157.71 250.59 152.69 253.55L152.51 270.72C152.979 271.763 153.781 272.621 154.79 273.16C156.86 274.48 160.87 275.06 165.91 273.69C172.68 271.86 174.08 267.85 174.08 267.85C174.08 267.85 173.86 256.46 173.91 251.19C174 246.43 173.75 243.63 173.32 242.32Z" fill="#338866"/>
<g opacity="0.5">
<path d="M173.32 242.32C172.69 240.42 170.11 237.74 167.7 238.19C163.27 239.01 158.42 240.45 157.13 240.82C157.13 240.82 157.71 250.59 152.69 253.55L152.51 270.72C152.979 271.763 153.781 272.621 154.79 273.16C156.86 274.48 160.87 275.06 165.91 273.69C172.68 271.86 174.08 267.85 174.08 267.85C174.08 267.85 173.86 256.46 173.91 251.19C174 246.43 173.75 243.63 173.32 242.32Z" fill="black"/>
</g>
<g opacity="0.2">
<path d="M152.67 255.85C154.208 254.192 155.38 252.23 156.11 250.09C156.11 250.09 156.25 254.79 152.65 257.28L152.67 255.85Z" fill="black"/>
</g>
<path d="M157.13 240.82C154.39 241.65 152.73 241.82 149.7 246.45C146.67 251.08 139.83 259.82 139.18 260.93C138.717 261.728 138.449 262.623 138.397 263.544C138.345 264.465 138.51 265.385 138.88 266.23C139.62 267.55 141.38 266.77 144.39 264.14C147.4 261.51 153.39 254.59 153.39 254.59C155.296 250.205 156.556 245.567 157.13 240.82Z" fill="#FFA8A7"/>
<path d="M157.13 240.82C155.759 241.108 154.419 241.53 153.13 242.08C151.805 242.51 150.634 243.316 149.76 244.4C147.3 247.69 144.13 253.24 144.13 253.24C144.13 253.24 144.7 257.54 149.99 259.06L152.59 255.89C153.745 254.657 154.694 253.245 155.4 251.71C156.63 249.09 158 244.94 157.13 240.82Z" fill="#338866"/>
<g opacity="0.4">
<path d="M157.13 240.82C155.759 241.108 154.419 241.53 153.13 242.08C151.805 242.51 150.634 243.316 149.76 244.4C147.3 247.69 144.13 253.24 144.13 253.24C144.13 253.24 144.7 257.54 149.99 259.06L152.59 255.89C153.745 254.657 154.694 253.245 155.4 251.71C156.63 249.09 158 244.94 157.13 240.82Z" fill="black"/>
</g>
<path d="M139.8 266.88C137.27 266.57 131.8 258.88 130.12 256.3C128.794 254.171 127.052 252.332 125 250.89C122.32 248.89 122.71 245.89 123.88 243.09C124.29 242.09 125.66 242.75 125.66 242.75L126.14 244.07L126.98 246.36C127.55 246.89 127.87 247.06 127.91 246.9C127.95 246.74 127.49 245.38 127.5 244.09C127.5 242.55 128.6 243.56 128.92 244.09C129.363 244.914 129.744 245.77 130.06 246.65C130.6 248.03 130.38 249.43 131.06 250.37C131.74 251.31 140.54 259.76 140.54 259.76L139.8 266.88Z" fill="#FFA8A7"/>
</g>
<defs>
<clipPath id="clip0_1_2">
<rect width="468" height="373" fill="white"/>
</clipPath>
</defs>
</svg>
